<?xml version="1.0" standalone="no"?>
<!DOCTYPE svg PUBLIC "-//W3C//DTD SVG 20010904//EN"
 "http://www.w3.org/TR/2001/REC-SVG-20010904/DTD/svg10.dtd">
<svg version="1.0" xmlns="http://www.w3.org/2000/svg"
 width="550.000000pt" height="550.000000pt" viewBox="0 0 550.000000 550.000000"
 preserveAspectRatio="xMidYMid meet">

<g transform="translate(0.000000,550.000000) scale(0.100000,-0.100000)"
fill="#000000" stroke="none">
<path d="M3278 4560 c-20 -15 -30 -42 -52 -137 -15 -65 -32 -131 -37 -148 -5
-16 -23 -88 -40 -160 -17 -71 -57 -238 -89 -370 -106 -432 -168 -687 -209
-860 -23 -93 -45 -183 -50 -200 -11 -36 -112 -459 -119 -498 -2 -15 -7 -29
-11 -32 -4 -2 -26 71 -49 163 -23 92 -58 226 -77 297 -40 156 -84 323 -130
500 -83 320 -81 315 -131 315 -41 0 -68 -20 -109 -80 -161 -238 -370 -520
-382 -516 -7 3 -124 79 -260 168 l-247 163 -187 -3 -186 -4 -27 27 c-32 32
-28 65 9 65 32 0 55 10 55 24 0 6 -27 45 -60 85 -33 41 -60 77 -60 81 0 4 10
14 22 22 l22 15 -28 54 c-16 30 -57 97 -91 149 -34 52 -65 105 -69 118 -14 43
-39 22 -96 -78 -24 -41 -53 -88 -66 -105 -12 -16 -36 -54 -54 -84 -31 -54 -30
-70 8 -71 26 0 8 -34 -72 -133 -45 -56 -42 -77 9 -77 22 0 38 -6 41 -14 7 -19
-36 -93 -76 -131 -16 -16 -30 -34 -30 -39 0 -6 -14 -24 -30 -40 -17 -16 -29
-34 -27 -40 2 -6 26 -12 53 -14 75 -4 78 -7 52 -45 -74 -111 -128 -184 -147
-201 -46 -42 -33 -46 157 -46 97 0 182 -4 189 -8 8 -5 13 -41 15 -96 3 -83 5
-90 30 -109 25 -19 28 -19 52 -4 24 16 25 23 28 114 l3 98 173 3 172 2 0 34
c0 19 -4 36 -8 38 -5 2 -26 28 -49 58 -22 30 -50 64 -62 74 -11 11 -21 24 -21
29 0 6 -7 19 -16 29 -21 22 -11 26 65 30 58 3 72 16 46 41 -8 9 -15 18 -15 21
0 3 49 6 110 6 l110 0 281 -185 c176 -116 290 -185 305 -185 39 0 59 15 97 72
20 29 74 107 121 173 48 66 112 157 144 202 31 45 60 83 63 83 4 0 9 -12 11
-27 5 -26 80 -322 173 -678 55 -210 136 -525 146 -570 22 -93 40 -132 65 -144
60 -27 96 3 119 101 9 40 23 93 30 118 7 25 22 86 34 135 11 50 43 182 70 295
28 113 70 291 95 395 25 105 52 213 60 240 8 28 17 66 21 85 4 19 11 49 15 65
5 17 16 59 24 95 8 36 44 184 79 330 36 146 79 326 97 400 30 127 50 181 50
134 0 -19 47 -233 104 -474 13 -58 36 -157 51 -220 14 -63 39 -171 55 -240 16
-69 41 -179 56 -245 66 -294 71 -305 130 -305 36 0 25 -9 319 244 l170 146
169 0 168 0 -16 -22 c-51 -71 -50 -69 -35 -79 8 -5 33 -8 57 -7 23 1 47 -3 52
-8 12 -12 -118 -208 -156 -237 -13 -10 -24 -25 -24 -33 0 -12 31 -14 174 -14
96 0 181 -3 190 -6 13 -5 16 -23 16 -90 0 -72 3 -86 23 -110 19 -22 29 -26 50
-20 27 6 27 6 27 105 0 74 4 102 15 111 10 8 64 11 180 11 l165 -2 0 30 c0 20
-11 42 -35 68 -19 21 -35 43 -35 49 0 6 -15 24 -33 40 -19 16 -42 42 -52 57
-25 39 -9 52 63 52 34 0 57 4 57 11 0 6 -21 35 -47 65 -146 170 -153 186 -85
202 42 10 49 34 20 65 -21 21 -76 91 -88 111 -5 9 0 20 16 31 27 21 29 17 -57
155 -31 50 -70 115 -86 145 -37 67 -32 62 -52 54 -9 -3 -33 -36 -53 -73 -20
-36 -46 -79 -58 -96 -22 -30 -105 -164 -105 -170 0 -2 14 -8 31 -14 28 -10 30
-13 18 -28 -8 -10 -17 -22 -21 -28 -4 -5 -28 -36 -53 -67 -53 -67 -51 -88 6
-88 31 0 39 -4 39 -19 0 -17 -15 -18 -249 -23 -141 -3 -257 -10 -268 -16 -10
-6 -98 -78 -194 -161 l-174 -150 -12 47 c-6 26 -31 135 -56 242 -24 107 -63
276 -86 375 -88 375 -122 523 -141 605 -76 336 -93 396 -112 413 -26 22 -59
22 -90 -3z"/>
<path d="M707 1663 c57 -7 63 -27 63 -213 0 -182 -6 -205 -58 -213 -15 -2 14
-4 63 -4 50 0 76 2 58 4 -17 2 -36 10 -43 17 -7 9 -10 69 -8 177 l3 163 71
-180 c54 -135 76 -180 90 -182 16 -2 29 27 86 190 l67 193 0 -176 c1 -184 0
-191 -44 -202 -11 -2 41 -5 115 -5 74 0 126 3 115 5 -44 11 -45 17 -45 213 0
199 1 203 50 213 14 2 -24 4 -84 3 l-108 -1 -42 -117 c-22 -64 -44 -119 -48
-123 -3 -3 -28 50 -55 119 l-48 126 -115 -2 c-63 0 -100 -3 -83 -5z"/>
<path d="M2070 1650 c-11 -11 -20 -27 -20 -35 0 -22 37 -55 60 -55 23 0 60 33
60 55 0 22 -37 55 -60 55 -11 0 -29 -9 -40 -20z"/>
<path d="M2570 1663 c49 -9 50 -14 50 -213 0 -199 -1 -204 -50 -213 -14 -2 43
-4 125 -4 83 0 137 2 120 4 -46 6 -55 27 -55 125 0 85 1 88 23 88 33 0 65 -27
76 -63 7 -25 9 -10 9 68 0 78 -2 93 -9 68 -11 -36 -43 -63 -76 -63 -22 0 -23
3 -23 101 l0 102 51 -5 c62 -6 103 -43 148 -132 l31 -61 0 103 0 102 -222 -1
c-123 -1 -212 -4 -198 -6z"/>
<path d="M3781 1599 c-18 -22 -51 -52 -74 -67 -35 -23 -38 -27 -19 -30 20 -3
22 -9 24 -114 3 -109 4 -111 31 -132 31 -23 128 -29 148 -9 7 7 4 9 -13 6 -40
-8 -50 17 -56 137 l-5 110 36 0 c20 0 39 5 42 10 4 6 -10 10 -34 10 l-40 0 -3
59 -3 60 -34 -40z"/>
<path d="M1348 1510 c21 -9 22 -15 22 -110 0 -56 5 -110 11 -122 12 -23 67
-48 106 -48 21 0 24 3 15 12 -8 8 -12 55 -12 145 l0 133 -82 -1 c-60 0 -77 -3
-60 -9z"/>
<path d="M1538 1510 c21 -9 22 -14 22 -145 l0 -135 83 1 c59 0 76 3 60 9 -22
9 -23 14 -23 145 l0 135 -82 -1 c-60 0 -77 -3 -60 -9z"/>
<path d="M1812 1509 c-23 -7 -38 -20 -49 -44 -23 -49 -6 -81 70 -130 48 -31
62 -45 62 -65 0 -17 -7 -26 -25 -32 -18 -5 -12 -6 19 -4 58 6 95 34 99 75 4
40 -13 60 -89 107 -31 19 -60 41 -63 50 -8 21 9 41 37 47 19 4 19 4 -3 5 -14
0 -40 -4 -58 -9z"/>
<path d="M1966 1504 c-3 -9 -12 -14 -19 -11 -51 21 -53 21 -30 1 13 -10 32
-37 43 -59 l19 -40 1 63 c0 63 -3 74 -14 46z"/>
<path d="M2031 1513 c24 -6 29 -33 29 -148 0 -102 -4 -118 -30 -128 -8 -3 30
-5 85 -6 69 0 93 3 78 9 -22 9 -23 14 -23 145 l0 135 -77 -1 c-43 -1 -71 -3
-62 -6z"/>
<path d="M2323 1510 c-101 -31 -134 -157 -62 -230 73 -72 216 -60 261 23 6 12
-5 5 -24 -15 -44 -48 -91 -52 -129 -12 -21 23 -24 35 -24 109 0 89 16 125 58
125 17 0 19 -5 13 -43 -8 -49 5 -73 45 -82 17 -4 33 0 49 13 21 17 23 24 15
48 -19 54 -125 87 -202 64z"/>
<path d="M3100 1509 c-71 -22 -96 -79 -43 -100 52 -20 110 21 85 61 -18 29
-15 42 11 38 21 -3 22 -8 25 -113 4 -137 16 -160 87 -160 54 0 86 28 84 74 -1
25 -2 25 -8 -4 -3 -17 -13 -30 -21 -30 -12 0 -16 20 -20 99 -5 92 -7 100 -31
118 -30 23 -119 32 -169 17z"/>
<path d="M3463 1510 c-101 -31 -134 -157 -62 -230 73 -72 216 -60 261 23 6 12
-5 5 -24 -15 -44 -48 -91 -52 -129 -12 -21 23 -24 35 -24 109 0 89 16 125 58
125 17 0 19 -5 13 -43 -8 -49 5 -73 45 -82 17 -4 33 0 49 13 21 17 23 24 15
48 -19 54 -125 87 -202 64z"/>
<path d="M4023 1509 c-44 -13 -91 -63 -99 -104 -24 -130 119 -216 249 -149 89
46 87 192 -2 239 -40 20 -108 27 -148 14z m87 -18 c5 -11 10 -63 10 -116 0
-103 -9 -135 -40 -135 -31 0 -40 32 -40 135 0 103 9 135 40 135 11 0 24 -9 30
-19z"/>
<path d="M4266 1513 c28 -5 34 -28 34 -138 0 -110 -6 -133 -34 -138 -11 -2 26
-5 84 -5 74 -1 98 2 82 9 -22 8 -23 13 -22 121 1 62 1 123 1 136 -1 21 -4 22
-83 21 -46 -1 -73 -4 -62 -6z"/>
<path d="M4445 1510 c-18 -8 -18 -9 -2 -9 14 -1 16 -5 7 -20 -38 -72 51 -125
95 -57 37 56 -32 115 -100 86z"/>
<path d="M4563 1513 c21 -6 32 -27 96 -181 l49 -120 -17 -38 c-10 -22 -25 -45
-34 -52 -13 -12 -15 -9 -10 27 5 33 2 41 -17 51 -28 15 -66 5 -81 -21 -28 -52
31 -104 91 -79 34 14 90 117 160 293 30 77 49 111 64 117 15 6 6 9 -34 9 -44
0 -50 -2 -31 -10 12 -5 21 -15 19 -22 -3 -6 -13 -36 -22 -64 -10 -29 -21 -55
-25 -57 -7 -5 -61 113 -61 133 0 5 8 12 18 14 9 3 -28 5 -83 5 -55 0 -92 -2
-82 -5z"/>
<path d="M3099 1381 c-61 -9 -79 -25 -79 -72 0 -58 40 -87 105 -75 41 8 66 33
32 32 -19 -1 -22 5 -25 45 -2 33 2 51 13 63 9 9 13 15 8 15 -4 -1 -29 -5 -54
-8z"/>
<path d="M1752 1285 c0 -33 2 -52 5 -42 5 19 12 19 58 2 17 -6 17 -5 -3 9 -12
10 -31 34 -42 54 l-19 37 1 -60z"/>
</g>
</svg>
